<svg width="106" height="32" fill="none" xmlns="http://www.w3.org/2000/svg"><g clip-path="url(#daba-logo_svg__a)"><path d="M7.393 18.318c-.848.808-1.414 1.98-1.414 3.434 0 1.333.566 2.505 1.414 3.313.89.848 2.02 1.252 3.03 1.252 1.091 0 2.384-.444 3.313-1.333.687-.647 1.333-1.737 1.333-3.232 0-1.535-.606-2.586-1.292-3.313-.93-.97-2.02-1.333-3.273-1.333-1.172 0-2.181.323-3.11 1.212Zm13.13 12.403h-5.817v-2.182c-.89 1.293-2.505 2.788-5.697 2.788-2.666 0-4.605-.849-6.18-2.465C.968 27.005 0 24.419 0 21.632c0-2.99 1.09-5.454 2.828-7.11 1.576-1.495 3.798-2.425 6.262-2.425 1.98 0 4.161.647 5.616 2.626V4.566h5.817V30.72ZM31.633 18.775c-.606.606-1.334 1.656-1.334 3.272 0 1.616.687 2.666 1.213 3.232.808.848 2.06 1.414 3.434 1.414a4.31 4.31 0 0 0 3.03-1.252c.767-.728 1.414-1.859 1.414-3.394 0-1.293-.485-2.505-1.334-3.313-.888-.848-2.181-1.252-3.232-1.252-1.252 0-2.424.525-3.191 1.293Zm7.393-5.697h5.818v18.019h-5.818v-2.182c-1.576 2.424-3.838 2.788-5.333 2.788-2.585 0-4.767-.647-6.747-2.747-1.899-2.02-2.626-4.364-2.626-6.747 0-3.03 1.131-5.616 2.788-7.272 1.575-1.576 3.757-2.465 6.262-2.465 1.535 0 4 .364 5.656 2.626v-2.02ZM56.278 18.44c-.687.726-1.293 1.777-1.293 3.312 0 1.495.647 2.586 1.333 3.232.93.889 2.223 1.333 3.313 1.333 1.01 0 2.142-.404 3.03-1.252a4.565 4.565 0 0 0 1.414-3.313c0-1.454-.565-2.626-1.414-3.434-.929-.889-1.939-1.212-3.11-1.212-1.253 0-2.344.364-3.273 1.333Zm-.93-13.843v10.125c1.455-1.98 3.637-2.626 5.617-2.626 2.464 0 4.686.93 6.262 2.424 1.737 1.657 2.828 4.121 2.828 7.11 0 2.789-.97 5.374-2.828 7.233-1.576 1.616-3.515 2.464-6.182 2.464-3.191 0-4.807-1.495-5.696-2.788v2.182H49.53V4.566l5.818.03ZM80.11 18.388c-.607.606-1.334 1.656-1.334 3.272 0 1.616.687 2.667 1.212 3.232.808.849 2.06 1.414 3.434 1.414a4.309 4.309 0 0 0 3.03-1.252c.768-.727 1.414-1.858 1.414-3.394 0-1.293-.484-2.505-1.333-3.313-.889-.848-2.181-1.252-3.232-1.252-1.252 0-2.424.525-3.192 1.293Zm7.393-5.697h5.817V30.71h-5.817v-2.182c-1.576 2.425-3.838 2.788-5.333 2.788-2.586 0-4.767-.646-6.747-2.747-1.899-2.02-2.626-4.363-2.626-6.747 0-3.03 1.131-5.616 2.788-7.272 1.575-1.576 3.757-2.465 6.262-2.465 1.535 0 4 .364 5.656 2.626v-2.02Z" fill="#804CF5"></path><path d="M101.789 4.3h3.997v3.997h-3.997V4.3ZM97.238.296h4.907v3.997h-4.907V.296Z" fill="#A08FF9"></path><path fill-rule="evenodd" clip-rule="evenodd" d="M94.488 10.185a1.307 1.307 0 1 1 2.615.002 1.307 1.307 0 0 1-2.615-.002Z" fill="#BBB5F7"></path><path d="M101.789.296h3.997v3.997h-3.997V.296Z" fill="#8D6CFA"></path><path fill-rule="evenodd" clip-rule="evenodd" d="M93.793 2.295A2 2 0 0 1 95.792.296h1.998v3.997h-1.998a2 2 0 0 1-1.999-1.998ZM97.797 4.3h3.997v3.997h-2.598a1.4 1.4 0 0 1-1.4-1.399V4.3Z" fill="#BBB5F7"></path><path fill-rule="evenodd" clip-rule="evenodd" d="M101.789 8.289h3.997v1.998a1.999 1.999 0 0 1-3.997 0V8.289Z" fill="#BBB5F7"></path></g><defs><clipPath id="daba-logo_svg__a"><path fill="#fff" d="M0 0h106v32H0z"></path></clipPath></defs></svg>